<?xml version="1.0" encoding="iso-8859-1"?>
<!-- Generator: Adobe Illustrator 19.0.0, SVG Export Plug-In . SVG Version: 6.00 Build 0)  -->
<svg version="1.1" id="Layer_1" xmlns="http://www.w3.org/2000/svg" xmlns:xlink="http://www.w3.org/1999/xlink" x="0px" y="0px"
	 viewBox="0 0 512 512" style="enable-background:new 0 0 512 512;" xml:space="preserve">
<circle style="fill:#F4E3C3;" cx="256" cy="256" r="256"/>
<path style="fill:#FED8B2;" d="M307.671,506.782c99.926-20.48,178.631-99.185,199.111-199.111L284.444,85.333l-51.429,67.806
	l-62.348,47.695l96.721,96.721l-39.833,129.11L307.671,506.782z"/>
<polygon style="fill:#B97850;" points="341.333,143.946 284.444,143.946 284.444,85.333 227.556,85.333 227.556,143.946 
	170.667,143.946 170.667,200.835 227.556,200.835 227.556,426.667 284.444,426.667 284.444,200.835 341.333,200.835 "/>
<polygon style="fill:#935635;" points="284.444,143.946 284.444,85.333 255.426,85.333 255.426,426.667 284.444,426.667 
	284.444,200.835 341.333,200.835 341.333,143.946 "/>
<g>
</g>
<g>
</g>
<g>
</g>
<g>
</g>
<g>
</g>
<g>
</g>
<g>
</g>
<g>
</g>
<g>
</g>
<g>
</g>
<g>
</g>
<g>
</g>
<g>
</g>
<g>
</g>
<g>
</g>
</svg>
