<?xml version="1.0" encoding="iso-8859-1"?>
<!-- Generator: Adobe Illustrator 19.0.0, SVG Export Plug-In . SVG Version: 6.00 Build 0)  -->
<svg version="1.1" id="Layer_1" xmlns="http://www.w3.org/2000/svg" xmlns:xlink="http://www.w3.org/1999/xlink" x="0px" y="0px"
	 viewBox="0 0 512 512" style="enable-background:new 0 0 512 512;" xml:space="preserve">
<circle style="fill:#FFEC97;" cx="255.996" cy="255.997" r="255.996"/>
<path style="fill:#FFDB2D;" d="M512,256c0-29.175-4.892-57.205-13.881-83.328L380.044,54.597c0,0-87.681,5.797-124.305,45.366
	l-14.735-14.598c-29.782-34.816-89.133-25.32-89.133-25.32l34.383,34.342c10.634,12.039,20.81,24.684,29.829,36.478
	C167.129,110.293,95.15,185.207,95.15,185.207l87.322,90.172c-7.971,22.681-14.653,48.926-18.379,78.7
	c-35.551,6.957-62.382,38.267-62.382,75.855c0,0,37.229,36.446,68.185,67.207c26.91,9.61,55.891,14.858,86.103,14.858
	C397.385,512,512,397.385,512,256z"/>
<path style="fill:#C06100;" d="M244.408,168.949c0,0-83.514,80.825-83.514,237.076h83.514c0,0-22.046-146.89,24.245-219.115
	L244.408,168.949z"/>
<path style="fill:#008C49;" d="M251.685,180.906c0,0-96.064-8.505-156.534,4.301C95.151,185.207,217.561,57.8,251.685,180.906z"/>
<g>
	<path style="fill:#00A652;" d="M251.597,180.776c0,0-52.418-80.951-99.726-120.732C151.872,60.045,287.492,38.316,251.597,180.776z
		"/>
	<path style="fill:#00A652;" d="M252.198,180.776c0,0,70.443-85.177,127.846-126.179C380.044,54.598,190.845,67.096,252.198,180.776
		z"/>
</g>
<path style="fill:#008C49;" d="M251.685,180.745c0,0,94.287-20.263,155.874-14.997C407.559,165.747,270.398,54.375,251.685,180.745z
	"/>
<path style="fill:#00A652;" d="M251.685,180.888c0,0,79.753,54.223,118.462,102.413
	C370.147,283.301,356.027,107.184,251.685,180.888z"/>
<path style="fill:#FFA91F;" d="M309.766,322.852c-35.459,0-66.887,17.24-86.375,43.79c-12.561-8.822-27.853-14.016-44.368-14.016
	c-42.697,0-77.31,34.613-77.31,77.31h100.97h53.65H416.85C416.849,370.794,368.906,322.852,309.766,322.852z"/>
<path style="fill:#FF8800;" d="M416.849,429.934c0-59.14-47.942-107.083-107.083-107.083c-18.26,0-35.446,4.582-50.489,12.642
	v94.441H416.849z"/>
<g>
</g>
<g>
</g>
<g>
</g>
<g>
</g>
<g>
</g>
<g>
</g>
<g>
</g>
<g>
</g>
<g>
</g>
<g>
</g>
<g>
</g>
<g>
</g>
<g>
</g>
<g>
</g>
<g>
</g>
</svg>
